<svg width="221" height="61" viewBox="0 0 221 61" fill="none" xmlns="http://www.w3.org/2000/svg">
<path d="M9.00196 29.6791L9.00196 6.41711C8.9294 2.83686 10.8815 1.25934 12.4066 0.802139C16.7803 -0.0329966 26.3003 4.34198 42.7865 5.08021C50.8699 4.8259 55.4425 4.33406 64 0V30.7487C64 38.2353 53.5242 50 34.6677 50C24.9776 50 9.00196 45.1872 9.00196 29.6791Z" fill="#D58F47"/>
<path d="M26.8319 53.4918V44.0708H38.5133V53.4918C38.5133 55.1302 38.5133 58.4071 32.5368 58.4071C26.8319 58.4071 26.8319 54.5158 26.8319 53.4918Z" fill="#FBB3B3" stroke="#3B2309" stroke-width="2"/>
<path d="M32.6726 44.5828V52.775" stroke="#3B2309" stroke-width="2"/>
<path d="M4 0.265488V26.0177C4 40.0885 18.3363 46.4602 24.708 45.9292C31.0796 45.3982 32.7984 38.4099 32.6726 39.292M32.6726 39.292C32.5468 40.1742 35.3274 45.9292 40.9027 45.9292C46.4779 45.9292 61.3451 44.0708 61.3451 26.0177V0.265488M32.6726 39.292V29.2035" stroke="#3B2309" stroke-width="8"/>
<ellipse cx="32.9381" cy="29.469" rx="6.63717" ry="5.04425" fill="#3B2309"/>
<circle cx="21.7876" cy="13.0089" r="3.9823" fill="#3B2309"/>
<path d="M61.6107 6.10619C64.0622 6.05599 65.1945 5.97802 68.5133 6.10619C73.2825 6.88708 74.2086 8.77384 74.354 13.0088C74.412 17.8504 71.2335 20.3569 61.6107 23.0973" stroke="#3B2309" stroke-width="8"/>
<circle cx="42.4956" cy="13.0089" r="3.9823" fill="#3B2309"/>
<path d="M27.3096 51.4706C27.9071 49.6735 29.2879 51.1778 30.5662 51.3144C32.5522 49.2173 35.0792 49.7103 36.0142 52.2189C38.0104 51.9999 38.0792 51.6614 39.0408 53.5235C41.5543 51.7832 41.6733 59.7887 39.2589 57.56C38.1649 58.9137 37.5143 59.0817 36.3084 58.653C34.1589 60.4324 33.0538 60.2402 31.1452 59.2775C29.3606 60.2759 29.165 59.5166 27.9149 58.1337C24.3529 61.2515 22.7534 55.2118 25.1183 54.1758C25.0879 52.4751 25.5416 51.1372 27.3096 51.4706Z" fill="white" stroke="#3B2309" stroke-width="0.5"/>
<mask id="path-10-outside-1_8_74" maskUnits="userSpaceOnUse" x="96" y="14" width="123" height="25" fill="black">
<rect fill="white" x="96" y="14" width="123" height="25"/>
<path d="M97.01 37V16H100.91L106.61 25.9L112.25 16H116.18V37H112.22V22.75L107.72 30.91H105.44L100.94 22.75V37H97.01ZM126.604 37.39C123.924 37.39 121.884 36.71 120.484 35.35C119.104 33.97 118.414 31.89 118.414 29.11V16H122.344V28.9C122.344 30.6 122.724 31.81 123.484 32.53C124.264 33.25 125.304 33.61 126.604 33.61C127.904 33.61 128.934 33.25 129.694 32.53C130.454 31.81 130.834 30.6 130.834 28.9V16H134.764V29.11C134.764 31.89 134.074 33.97 132.694 35.35C131.314 36.71 129.284 37.39 126.604 37.39ZM137.047 37V16H140.947L150.337 30.19V16H154.267V37H150.547L140.947 22.33V37H137.047ZM165.488 37.51C163.588 37.51 161.898 37.06 160.418 36.16C158.958 35.26 157.808 33.99 156.968 32.35C156.148 30.69 155.738 28.74 155.738 26.5C155.738 24.24 156.148 22.29 156.968 20.65C157.808 18.99 158.958 17.71 160.418 16.81C161.898 15.89 163.588 15.43 165.488 15.43C167.088 15.43 168.558 15.72 169.898 16.3C171.238 16.86 172.338 17.55 173.198 18.37L170.738 21.43C170.178 20.79 169.428 20.27 168.488 19.87C167.548 19.45 166.548 19.24 165.488 19.24C164.308 19.24 163.288 19.55 162.428 20.17C161.588 20.77 160.938 21.61 160.478 22.69C160.038 23.77 159.818 25.04 159.818 26.5C159.818 27.94 160.038 29.2 160.478 30.28C160.938 31.36 161.588 32.21 162.428 32.83C163.288 33.43 164.308 33.73 165.488 33.73C166.408 33.73 167.158 33.65 167.738 33.49C168.318 33.31 168.808 33.09 169.208 32.83V28.78H166.028V25.18H173.168V35.41C172.148 36.09 170.958 36.61 169.598 36.97C168.258 37.33 166.888 37.51 165.488 37.51ZM173.709 37L180.609 26.08L174.159 16H178.779L182.709 22.54L186.609 16H191.229L184.809 26.08L191.709 37H187.059L182.709 29.62L178.329 37H173.709ZM192.694 37V16H196.594V37H192.694ZM199.104 37V16H203.004L208.704 25.9L214.344 16H218.274V37H214.314V22.75L209.814 30.91H207.534L203.034 22.75V37H199.104Z"/>
</mask>
<path d="M97.01 37V16H100.91L106.61 25.9L112.25 16H116.18V37H112.22V22.75L107.72 30.91H105.44L100.94 22.75V37H97.01ZM126.604 37.39C123.924 37.39 121.884 36.71 120.484 35.35C119.104 33.97 118.414 31.89 118.414 29.11V16H122.344V28.9C122.344 30.6 122.724 31.81 123.484 32.53C124.264 33.25 125.304 33.61 126.604 33.61C127.904 33.61 128.934 33.25 129.694 32.53C130.454 31.81 130.834 30.6 130.834 28.9V16H134.764V29.11C134.764 31.89 134.074 33.97 132.694 35.35C131.314 36.71 129.284 37.39 126.604 37.39ZM137.047 37V16H140.947L150.337 30.19V16H154.267V37H150.547L140.947 22.33V37H137.047ZM165.488 37.51C163.588 37.51 161.898 37.06 160.418 36.16C158.958 35.26 157.808 33.99 156.968 32.35C156.148 30.69 155.738 28.74 155.738 26.5C155.738 24.24 156.148 22.29 156.968 20.65C157.808 18.99 158.958 17.71 160.418 16.81C161.898 15.89 163.588 15.43 165.488 15.43C167.088 15.43 168.558 15.72 169.898 16.3C171.238 16.86 172.338 17.55 173.198 18.37L170.738 21.43C170.178 20.79 169.428 20.27 168.488 19.87C167.548 19.45 166.548 19.24 165.488 19.24C164.308 19.24 163.288 19.55 162.428 20.17C161.588 20.77 160.938 21.61 160.478 22.69C160.038 23.77 159.818 25.04 159.818 26.5C159.818 27.94 160.038 29.2 160.478 30.28C160.938 31.36 161.588 32.21 162.428 32.83C163.288 33.43 164.308 33.73 165.488 33.73C166.408 33.73 167.158 33.65 167.738 33.49C168.318 33.31 168.808 33.09 169.208 32.83V28.78H166.028V25.18H173.168V35.41C172.148 36.09 170.958 36.61 169.598 36.97C168.258 37.33 166.888 37.51 165.488 37.51ZM173.709 37L180.609 26.08L174.159 16H178.779L182.709 22.54L186.609 16H191.229L184.809 26.08L191.709 37H187.059L182.709 29.62L178.329 37H173.709ZM192.694 37V16H196.594V37H192.694ZM199.104 37V16H203.004L208.704 25.9L214.344 16H218.274V37H214.314V22.75L209.814 30.91H207.534L203.034 22.75V37H199.104Z" fill="#3B2309"/>
<path d="M97.01 37H96.51V37.5H97.01V37ZM97.01 16V15.5H96.51V16H97.01ZM100.91 16L101.343 15.7505L101.199 15.5H100.91V16ZM106.61 25.9L106.177 26.1495L106.612 26.9061L107.044 26.1475L106.61 25.9ZM112.25 16V15.5H111.959L111.816 15.7525L112.25 16ZM116.18 16H116.68V15.5H116.18V16ZM116.18 37V37.5H116.68V37H116.18ZM112.22 37H111.72V37.5H112.22V37ZM112.22 22.75H112.72L111.782 22.5085L112.22 22.75ZM107.72 30.91V31.41H108.015L108.158 31.1515L107.72 30.91ZM105.44 30.91L105.002 31.1515L105.145 31.41H105.44V30.91ZM100.94 22.75L101.378 22.5085L100.44 22.75H100.94ZM100.94 37V37.5H101.44V37H100.94ZM97.51 37V16H96.51V37H97.51ZM97.01 16.5H100.91V15.5H97.01V16.5ZM100.477 16.2495L106.177 26.1495L107.043 25.6505L101.343 15.7505L100.477 16.2495ZM107.044 26.1475L112.684 16.2475L111.816 15.7525L106.176 25.6525L107.044 26.1475ZM112.25 16.5H116.18V15.5H112.25V16.5ZM115.68 16V37H116.68V16H115.68ZM116.18 36.5H112.22V37.5H116.18V36.5ZM112.72 37V22.75H111.72V37H112.72ZM111.782 22.5085L107.282 30.6685L108.158 31.1515L112.658 22.9915L111.782 22.5085ZM107.72 30.41H105.44V31.41H107.72V30.41ZM105.878 30.6685L101.378 22.5085L100.502 22.9915L105.002 31.1515L105.878 30.6685ZM100.44 22.75V37H101.44V22.75H100.44ZM100.94 36.5H97.01V37.5H100.94V36.5ZM120.484 35.35L120.13 35.7036L120.135 35.7086L120.484 35.35ZM118.414 16V15.5H117.914V16H118.414ZM122.344 16H122.844V15.5H122.344V16ZM123.484 32.53L123.14 32.893L123.145 32.8974L123.484 32.53ZM129.694 32.53L129.35 32.167L129.35 32.167L129.694 32.53ZM130.834 16V15.5H130.334V16H130.834ZM134.764 16H135.264V15.5H134.764V16ZM132.694 35.35L133.045 35.7061L133.047 35.7036L132.694 35.35ZM126.604 36.89C124.005 36.89 122.109 36.2313 120.832 34.9914L120.135 35.7086C121.659 37.1887 123.843 37.89 126.604 37.89V36.89ZM120.837 34.9964C119.585 33.7439 118.914 31.8141 118.914 29.11H117.914C117.914 31.9659 118.623 34.1961 120.13 35.7036L120.837 34.9964ZM118.914 29.11V16H117.914V29.11H118.914ZM118.414 16.5H122.344V15.5H118.414V16.5ZM121.844 16V28.9H122.844V16H121.844ZM121.844 28.9C121.844 30.6547 122.233 32.0338 123.14 32.893L123.828 32.167C123.215 31.5862 122.844 30.5453 122.844 28.9H121.844ZM123.145 32.8974C124.037 33.7208 125.208 34.11 126.604 34.11V33.11C125.4 33.11 124.491 32.7792 123.823 32.1626L123.145 32.8974ZM126.604 34.11C127.999 34.11 129.164 33.721 130.038 32.893L129.35 32.167C128.704 32.779 127.808 33.11 126.604 33.11V34.11ZM130.038 32.893C130.945 32.0338 131.334 30.6547 131.334 28.9H130.334C130.334 30.5453 129.963 31.5862 129.35 32.167L130.038 32.893ZM131.334 28.9V16H130.334V28.9H131.334ZM130.834 16.5H134.764V15.5H130.834V16.5ZM134.264 16V29.11H135.264V16H134.264ZM134.264 29.11C134.264 31.8141 133.593 33.7439 132.34 34.9964L133.047 35.7036C134.555 34.1961 135.264 31.9659 135.264 29.11H134.264ZM132.343 34.9939C131.087 36.2311 129.204 36.89 126.604 36.89V37.89C129.364 37.89 131.54 37.1889 133.045 35.7061L132.343 34.9939ZM137.047 37H136.547V37.5H137.047V37ZM137.047 16V15.5H136.547V16H137.047ZM140.947 16L141.364 15.7241L141.216 15.5H140.947V16ZM150.337 30.19L149.92 30.4659L150.837 31.8516V30.19H150.337ZM150.337 16V15.5H149.837V16H150.337ZM154.267 16H154.767V15.5H154.267V16ZM154.267 37V37.5H154.767V37H154.267ZM150.547 37L150.129 37.2738L150.277 37.5H150.547V37ZM140.947 22.33L141.365 22.0562L140.447 20.6528V22.33H140.947ZM140.947 37V37.5H141.447V37H140.947ZM137.547 37V16H136.547V37H137.547ZM137.047 16.5H140.947V15.5H137.047V16.5ZM140.53 16.2759L149.92 30.4659L150.754 29.9141L141.364 15.7241L140.53 16.2759ZM150.837 30.19V16H149.837V30.19H150.837ZM150.337 16.5H154.267V15.5H150.337V16.5ZM153.767 16V37H154.767V16H153.767ZM154.267 36.5H150.547V37.5H154.267V36.5ZM150.965 36.7262L141.365 22.0562L140.529 22.6038L150.129 37.2738L150.965 36.7262ZM140.447 22.33V37H141.447V22.33H140.447ZM140.947 36.5H137.047V37.5H140.947V36.5ZM160.418 36.16L160.156 36.5856L160.158 36.5872L160.418 36.16ZM156.968 32.35L156.52 32.5715L156.523 32.5779L156.968 32.35ZM156.968 20.65L156.522 20.4242L156.521 20.4264L156.968 20.65ZM160.418 16.81L160.68 17.2356L160.682 17.2346L160.418 16.81ZM169.898 16.3L169.699 16.7589L169.705 16.7613L169.898 16.3ZM173.198 18.37L173.588 18.6833L173.876 18.3252L173.543 18.0081L173.198 18.37ZM170.738 21.43L170.362 21.7593L170.754 22.2078L171.128 21.7433L170.738 21.43ZM168.488 19.87L168.284 20.3266L168.292 20.3301L168.488 19.87ZM162.428 20.17L162.719 20.5769L162.72 20.5756L162.428 20.17ZM160.478 22.69L160.018 22.494L160.015 22.5014L160.478 22.69ZM160.478 30.28L160.015 30.4687L160.018 30.4759L160.478 30.28ZM162.428 32.83L162.131 33.2324L162.142 33.2401L162.428 32.83ZM167.738 33.49L167.871 33.972L167.879 33.9699L167.886 33.9675L167.738 33.49ZM169.208 32.83L169.481 33.2492L169.708 33.1013V32.83H169.208ZM169.208 28.78H169.708V28.28H169.208V28.78ZM166.028 28.78H165.528V29.28H166.028V28.78ZM166.028 25.18V24.68H165.528V25.18H166.028ZM173.168 25.18H173.668V24.68H173.168V25.18ZM173.168 35.41L173.445 35.826L173.668 35.6776V35.41H173.168ZM169.598 36.97L169.47 36.4866L169.468 36.4871L169.598 36.97ZM165.488 37.01C163.671 37.01 162.072 36.5806 160.678 35.7328L160.158 36.5872C161.724 37.5394 163.506 38.01 165.488 38.01V37.01ZM160.68 35.7344C159.304 34.8859 158.215 33.687 157.413 32.1221L156.523 32.5779C157.401 34.293 158.612 35.6341 160.156 36.5856L160.68 35.7344ZM157.416 32.1286C156.637 30.5504 156.238 28.6791 156.238 26.5H155.238C155.238 28.8009 155.659 30.8296 156.52 32.5714L157.416 32.1286ZM156.238 26.5C156.238 24.2999 156.637 22.4299 157.415 20.8736L156.521 20.4264C155.659 22.1501 155.238 24.1801 155.238 26.5H156.238ZM157.414 20.8758C158.216 19.2908 159.306 18.0831 160.68 17.2356L160.156 16.3844C158.611 17.3369 157.4 18.6892 156.522 20.4242L157.414 20.8758ZM160.682 17.2346C162.076 16.3683 163.673 15.93 165.488 15.93V14.93C163.503 14.93 161.72 15.4117 160.154 16.3854L160.682 17.2346ZM165.488 15.93C167.026 15.93 168.428 16.2085 169.699 16.7589L170.097 15.8411C168.688 15.2315 167.15 14.93 165.488 14.93V15.93ZM169.705 16.7613C171.001 17.3028 172.046 17.9623 172.853 18.7319L173.543 18.0081C172.63 17.1377 171.475 16.4172 170.091 15.8387L169.705 16.7613ZM172.808 18.0567L170.348 21.1167L171.128 21.7433L173.588 18.6833L172.808 18.0567ZM171.114 21.1007C170.496 20.3938 169.679 19.8335 168.684 19.4099L168.292 20.3301C169.177 20.7065 169.86 21.1862 170.362 21.7593L171.114 21.1007ZM168.692 19.4135C167.686 18.964 166.616 18.74 165.488 18.74V19.74C166.48 19.74 167.41 19.936 168.284 20.3265L168.692 19.4135ZM165.488 18.74C164.216 18.74 163.09 19.0761 162.136 19.7644L162.72 20.5756C163.486 20.0239 164.401 19.74 165.488 19.74V18.74ZM162.137 19.7631C161.213 20.4236 160.509 21.3414 160.018 22.4941L160.938 22.8859C161.367 21.8786 161.963 21.1164 162.719 20.5769L162.137 19.7631ZM160.015 22.5014C159.545 23.6543 159.318 24.991 159.318 26.5H160.318C160.318 25.089 160.531 23.8857 160.941 22.8786L160.015 22.5014ZM159.318 26.5C159.318 27.99 159.546 29.3165 160.015 30.4686L160.941 30.0914C160.53 29.0835 160.318 27.89 160.318 26.5H159.318ZM160.018 30.4759C160.509 31.6276 161.211 32.5529 162.131 33.2323L162.725 32.4277C161.965 31.8671 161.368 31.0924 160.938 30.0841L160.018 30.4759ZM162.142 33.2401C163.096 33.9058 164.219 34.23 165.488 34.23V33.23C164.397 33.23 163.48 32.9542 162.714 32.4199L162.142 33.2401ZM165.488 34.23C166.432 34.23 167.231 34.1485 167.871 33.972L167.605 33.008C167.085 33.1515 166.384 33.23 165.488 33.23V34.23ZM167.886 33.9675C168.499 33.7774 169.033 33.54 169.481 33.2492L168.936 32.4108C168.583 32.64 168.137 32.8426 167.59 33.0125L167.886 33.9675ZM169.708 32.83V28.78H168.708V32.83H169.708ZM169.208 28.28H166.028V29.28H169.208V28.28ZM166.528 28.78V25.18H165.528V28.78H166.528ZM166.028 25.68H173.168V24.68H166.028V25.68ZM172.668 25.18V35.41H173.668V25.18H172.668ZM172.891 34.994C171.923 35.6393 170.785 36.1387 169.47 36.4866L169.726 37.4534C171.131 37.0813 172.373 36.5407 173.445 35.826L172.891 34.994ZM169.468 36.4871C168.171 36.8357 166.845 37.01 165.488 37.01V38.01C166.931 38.01 168.345 37.8243 169.728 37.4529L169.468 36.4871ZM173.709 37L173.287 36.7329L172.802 37.5H173.709V37ZM180.609 26.08L181.032 26.3471L181.202 26.0783L181.03 25.8105L180.609 26.08ZM174.159 16V15.5H173.246L173.738 16.2695L174.159 16ZM178.779 16L179.208 15.7425L179.062 15.5H178.779V16ZM182.709 22.54L182.281 22.7975L182.711 23.5135L183.139 22.7961L182.709 22.54ZM186.609 16V15.5H186.325L186.18 15.7439L186.609 16ZM191.229 16L191.651 16.2686L192.14 15.5H191.229V16ZM184.809 26.08L184.387 25.8114L184.217 26.0789L184.387 26.3471L184.809 26.08ZM191.709 37V37.5H192.617L192.132 36.7329L191.709 37ZM187.059 37L186.628 37.2539L186.774 37.5H187.059V37ZM182.709 29.62L183.14 29.3661L182.711 28.6378L182.279 29.3648L182.709 29.62ZM178.329 37V37.5H178.614L178.759 37.2552L178.329 37ZM174.132 37.2671L181.032 26.3471L180.187 25.8129L173.287 36.7329L174.132 37.2671ZM181.03 25.8105L174.58 15.7305L173.738 16.2695L180.188 26.3495L181.03 25.8105ZM174.159 16.5H178.779V15.5H174.159V16.5ZM178.351 16.2575L182.281 22.7975L183.138 22.2825L179.208 15.7425L178.351 16.2575ZM183.139 22.7961L187.039 16.2561L186.18 15.7439L182.28 22.2839L183.139 22.7961ZM186.609 16.5H191.229V15.5H186.609V16.5ZM190.807 15.7314L184.387 25.8114L185.231 26.3486L191.651 16.2686L190.807 15.7314ZM184.387 26.3471L191.287 37.2671L192.132 36.7329L185.232 25.8129L184.387 26.3471ZM191.709 36.5H187.059V37.5H191.709V36.5ZM187.49 36.7461L183.14 29.3661L182.278 29.8739L186.628 37.2539L187.49 36.7461ZM182.279 29.3648L177.899 36.7448L178.759 37.2552L183.139 29.8752L182.279 29.3648ZM178.329 36.5H173.709V37.5H178.329V36.5ZM192.694 37H192.194V37.5H192.694V37ZM192.694 16V15.5H192.194V16H192.694ZM196.594 16H197.094V15.5H196.594V16ZM196.594 37V37.5H197.094V37H196.594ZM193.194 37V16H192.194V37H193.194ZM192.694 16.5H196.594V15.5H192.694V16.5ZM196.094 16V37H197.094V16H196.094ZM196.594 36.5H192.694V37.5H196.594V36.5ZM199.104 37H198.604V37.5H199.104V37ZM199.104 16V15.5H198.604V16H199.104ZM203.004 16L203.437 15.7505L203.293 15.5H203.004V16ZM208.704 25.9L208.27 26.1495L208.706 26.9061L209.138 26.1475L208.704 25.9ZM214.344 16V15.5H214.053L213.909 15.7525L214.344 16ZM218.274 16H218.774V15.5H218.274V16ZM218.274 37V37.5H218.774V37H218.274ZM214.314 37H213.814V37.5H214.314V37ZM214.314 22.75H214.814L213.876 22.5085L214.314 22.75ZM209.814 30.91V31.41H210.109L210.252 31.1515L209.814 30.91ZM207.534 30.91L207.096 31.1515L207.238 31.41H207.534V30.91ZM203.034 22.75L203.472 22.5085L202.534 22.75H203.034ZM203.034 37V37.5H203.534V37H203.034ZM199.604 37V16H198.604V37H199.604ZM199.104 16.5H203.004V15.5H199.104V16.5ZM202.57 16.2495L208.27 26.1495L209.137 25.6505L203.437 15.7505L202.57 16.2495ZM209.138 26.1475L214.778 16.2475L213.909 15.7525L208.269 25.6525L209.138 26.1475ZM214.344 16.5H218.274V15.5H214.344V16.5ZM217.774 16V37H218.774V16H217.774ZM218.274 36.5H214.314V37.5H218.274V36.5ZM214.814 37V22.75H213.814V37H214.814ZM213.876 22.5085L209.376 30.6685L210.252 31.1515L214.752 22.9915L213.876 22.5085ZM209.814 30.41H207.534V31.41H209.814V30.41ZM207.972 30.6685L203.472 22.5085L202.596 22.9915L207.096 31.1515L207.972 30.6685ZM202.534 22.75V37H203.534V22.75H202.534ZM203.034 36.5H199.104V37.5H203.034V36.5Z" fill="#3B2309" mask="url(#path-10-outside-1_8_74)"/>
</svg>
