<svg width="249" height="212" viewBox="0 0 249 212" fill="none" xmlns="http://www.w3.org/2000/svg">
<rect width="249" height="212" rx="18" fill="#FFEADA"/>
<path d="M75.0038 96.5L75.0038 53C74.8652 46.3049 78.5921 43.355 81.5038 42.5C89.8537 40.9383 108.029 49.1195 139.504 50.5C154.936 50.0244 163.666 49.1047 180.004 41V98.5C180.004 112.5 160.004 134.5 124.004 134.5C105.504 134.5 75.0038 125.5 75.0038 96.5Z" fill="#D58F47"/>
<path d="M109 141.743V124H131V141.743C131 144.829 131 151 119.744 151C109 151 109 143.671 109 141.743Z" fill="#FBB3B3" stroke="#3B2309" stroke-width="2"/>
<path d="M120 124.964V140.393" stroke="#3B2309" stroke-width="2"/>
<path d="M66 41.5V90C66 116.5 93 128.5 105 127.5C117 126.5 120.237 113.339 120 115M120 115C119.763 116.661 125 127.5 135.5 127.5C146 127.5 174 124 174 90V41.5M120 115V96" stroke="#3B2309" stroke-width="8"/>
<ellipse cx="120.5" cy="96.5" rx="12.5" ry="9.5" fill="#3B2309"/>
<circle cx="99.5" cy="65.5" r="7.5" fill="#3B2309"/>
<path d="M174.5 52.5C179.117 52.4055 181.25 52.2586 187.5 52.5C196.482 53.9707 198.226 57.5241 198.5 65.5C198.609 74.6183 192.623 79.3389 174.5 84.5" stroke="#3B2309" stroke-width="8"/>
<circle cx="138.5" cy="65.5" r="7.5" fill="#3B2309"/>
<path d="M110.23 137.794C111.355 134.38 113.954 137.238 116.36 137.497C120.098 133.513 124.855 134.45 126.615 139.216C130.372 138.8 130.502 138.157 132.312 141.695C137.043 138.388 137.267 153.599 132.723 149.364C130.663 151.936 129.439 152.255 127.169 151.441C123.123 154.822 121.042 154.456 117.45 152.627C114.09 154.524 113.722 153.082 111.369 150.454C104.664 156.378 101.653 144.902 106.105 142.934C106.048 139.703 106.902 137.161 110.23 137.794Z" fill="white" stroke="#3B2309" stroke-width="0.5"/>
<mask id="path-11-outside-1_1_17" maskUnits="userSpaceOnUse" x="61" y="163" width="123" height="25" fill="black">
<rect fill="white" x="61" y="163" width="123" height="25"/>
<path d="M62.01 186V165H65.91L71.61 174.9L77.25 165H81.18V186H77.22V171.75L72.72 179.91H70.44L65.94 171.75V186H62.01ZM91.6038 186.39C88.9238 186.39 86.8838 185.71 85.4838 184.35C84.1038 182.97 83.4138 180.89 83.4138 178.11V165H87.3438V177.9C87.3438 179.6 87.7238 180.81 88.4838 181.53C89.2638 182.25 90.3038 182.61 91.6038 182.61C92.9038 182.61 93.9338 182.25 94.6938 181.53C95.4538 180.81 95.8338 179.6 95.8338 177.9V165H99.7638V178.11C99.7638 180.89 99.0738 182.97 97.6938 184.35C96.3138 185.71 94.2838 186.39 91.6038 186.39ZM102.047 186V165H105.947L115.337 179.19V165H119.267V186H115.547L105.947 171.33V186H102.047ZM130.488 186.51C128.588 186.51 126.898 186.06 125.418 185.16C123.958 184.26 122.808 182.99 121.968 181.35C121.148 179.69 120.738 177.74 120.738 175.5C120.738 173.24 121.148 171.29 121.968 169.65C122.808 167.99 123.958 166.71 125.418 165.81C126.898 164.89 128.588 164.43 130.488 164.43C132.088 164.43 133.558 164.72 134.898 165.3C136.238 165.86 137.338 166.55 138.198 167.37L135.738 170.43C135.178 169.79 134.428 169.27 133.488 168.87C132.548 168.45 131.548 168.24 130.488 168.24C129.308 168.24 128.288 168.55 127.428 169.17C126.588 169.77 125.938 170.61 125.478 171.69C125.038 172.77 124.818 174.04 124.818 175.5C124.818 176.94 125.038 178.2 125.478 179.28C125.938 180.36 126.588 181.21 127.428 181.83C128.288 182.43 129.308 182.73 130.488 182.73C131.408 182.73 132.158 182.65 132.738 182.49C133.318 182.31 133.808 182.09 134.208 181.83V177.78H131.028V174.18H138.168V184.41C137.148 185.09 135.958 185.61 134.598 185.97C133.258 186.33 131.888 186.51 130.488 186.51ZM138.709 186L145.609 175.08L139.159 165H143.779L147.709 171.54L151.609 165H156.229L149.809 175.08L156.709 186H152.059L147.709 178.62L143.329 186H138.709ZM157.694 186V165H161.594V186H157.694ZM164.104 186V165H168.004L173.704 174.9L179.344 165H183.274V186H179.314V171.75L174.814 179.91H172.534L168.034 171.75V186H164.104Z"/>
</mask>
<path d="M62.01 186V165H65.91L71.61 174.9L77.25 165H81.18V186H77.22V171.75L72.72 179.91H70.44L65.94 171.75V186H62.01ZM91.6038 186.39C88.9238 186.39 86.8838 185.71 85.4838 184.35C84.1038 182.97 83.4138 180.89 83.4138 178.11V165H87.3438V177.9C87.3438 179.6 87.7238 180.81 88.4838 181.53C89.2638 182.25 90.3038 182.61 91.6038 182.61C92.9038 182.61 93.9338 182.25 94.6938 181.53C95.4538 180.81 95.8338 179.6 95.8338 177.9V165H99.7638V178.11C99.7638 180.89 99.0738 182.97 97.6938 184.35C96.3138 185.71 94.2838 186.39 91.6038 186.39ZM102.047 186V165H105.947L115.337 179.19V165H119.267V186H115.547L105.947 171.33V186H102.047ZM130.488 186.51C128.588 186.51 126.898 186.06 125.418 185.16C123.958 184.26 122.808 182.99 121.968 181.35C121.148 179.69 120.738 177.74 120.738 175.5C120.738 173.24 121.148 171.29 121.968 169.65C122.808 167.99 123.958 166.71 125.418 165.81C126.898 164.89 128.588 164.43 130.488 164.43C132.088 164.43 133.558 164.72 134.898 165.3C136.238 165.86 137.338 166.55 138.198 167.37L135.738 170.43C135.178 169.79 134.428 169.27 133.488 168.87C132.548 168.45 131.548 168.24 130.488 168.24C129.308 168.24 128.288 168.55 127.428 169.17C126.588 169.77 125.938 170.61 125.478 171.69C125.038 172.77 124.818 174.04 124.818 175.5C124.818 176.94 125.038 178.2 125.478 179.28C125.938 180.36 126.588 181.21 127.428 181.83C128.288 182.43 129.308 182.73 130.488 182.73C131.408 182.73 132.158 182.65 132.738 182.49C133.318 182.31 133.808 182.09 134.208 181.83V177.78H131.028V174.18H138.168V184.41C137.148 185.09 135.958 185.61 134.598 185.97C133.258 186.33 131.888 186.51 130.488 186.51ZM138.709 186L145.609 175.08L139.159 165H143.779L147.709 171.54L151.609 165H156.229L149.809 175.08L156.709 186H152.059L147.709 178.62L143.329 186H138.709ZM157.694 186V165H161.594V186H157.694ZM164.104 186V165H168.004L173.704 174.9L179.344 165H183.274V186H179.314V171.75L174.814 179.91H172.534L168.034 171.75V186H164.104Z" fill="#3B2309"/>
<path d="M62.01 186H61.51V186.5H62.01V186ZM62.01 165V164.5H61.51V165H62.01ZM65.91 165L66.3433 164.751L66.1991 164.5H65.91V165ZM71.61 174.9L71.1767 175.149L71.6123 175.906L72.0444 175.148L71.61 174.9ZM77.25 165V164.5H76.9594L76.8156 164.752L77.25 165ZM81.18 165H81.68V164.5H81.18V165ZM81.18 186V186.5H81.68V186H81.18ZM77.22 186H76.72V186.5H77.22V186ZM77.22 171.75H77.72L76.7822 171.509L77.22 171.75ZM72.72 179.91V180.41H73.0153L73.1578 180.151L72.72 179.91ZM70.44 179.91L70.0022 180.151L70.1447 180.41H70.44V179.91ZM65.94 171.75L66.3778 171.509L65.44 171.75H65.94ZM65.94 186V186.5H66.44V186H65.94ZM62.51 186V165H61.51V186H62.51ZM62.01 165.5H65.91V164.5H62.01V165.5ZM65.4767 165.249L71.1767 175.149L72.0433 174.651L66.3433 164.751L65.4767 165.249ZM72.0444 175.148L77.6844 165.248L76.8156 164.752L71.1756 174.652L72.0444 175.148ZM77.25 165.5H81.18V164.5H77.25V165.5ZM80.68 165V186H81.68V165H80.68ZM81.18 185.5H77.22V186.5H81.18V185.5ZM77.72 186V171.75H76.72V186H77.72ZM76.7822 171.509L72.2822 179.669L73.1578 180.151L77.6578 171.991L76.7822 171.509ZM72.72 179.41H70.44V180.41H72.72V179.41ZM70.8778 179.669L66.3778 171.509L65.5022 171.991L70.0022 180.151L70.8778 179.669ZM65.44 171.75V186H66.44V171.75H65.44ZM65.94 185.5H62.01V186.5H65.94V185.5ZM85.4838 184.35L85.1302 184.704L85.1354 184.709L85.4838 184.35ZM83.4138 165V164.5H82.9138V165H83.4138ZM87.3438 165H87.8438V164.5H87.3438V165ZM88.4838 181.53L88.1399 181.893L88.1447 181.897L88.4838 181.53ZM94.6938 181.53L94.35 181.167L94.35 181.167L94.6938 181.53ZM95.8338 165V164.5H95.3338V165H95.8338ZM99.7638 165H100.264V164.5H99.7638V165ZM97.6938 184.35L98.0448 184.706L98.0474 184.704L97.6938 184.35ZM91.6038 185.89C89.0045 185.89 87.1086 185.231 85.8322 183.991L85.1354 184.709C86.659 186.189 88.8431 186.89 91.6038 186.89V185.89ZM85.8374 183.996C84.5848 182.744 83.9138 180.814 83.9138 178.11H82.9138C82.9138 180.966 83.6228 183.196 85.1303 184.704L85.8374 183.996ZM83.9138 178.11V165H82.9138V178.11H83.9138ZM83.4138 165.5H87.3438V164.5H83.4138V165.5ZM86.8438 165V177.9H87.8438V165H86.8438ZM86.8438 177.9C86.8438 179.655 87.233 181.034 88.14 181.893L88.8277 181.167C88.2146 180.586 87.8438 179.545 87.8438 177.9H86.8438ZM88.1447 181.897C89.0368 182.721 90.2078 183.11 91.6038 183.11V182.11C90.3999 182.11 89.4909 181.779 88.823 181.163L88.1447 181.897ZM91.6038 183.11C92.9993 183.11 94.1637 182.721 95.0377 181.893L94.35 181.167C93.704 181.779 92.8084 182.11 91.6038 182.11V183.11ZM95.0377 181.893C95.9446 181.034 96.3338 179.655 96.3338 177.9H95.3338C95.3338 179.545 94.963 180.586 94.35 181.167L95.0377 181.893ZM96.3338 177.9V165H95.3338V177.9H96.3338ZM95.8338 165.5H99.7638V164.5H95.8338V165.5ZM99.2638 165V178.11H100.264V165H99.2638ZM99.2638 178.11C99.2638 180.814 98.5928 182.744 97.3403 183.996L98.0474 184.704C99.5548 183.196 100.264 180.966 100.264 178.11H99.2638ZM97.3429 183.994C96.0875 185.231 94.2037 185.89 91.6038 185.89V186.89C94.364 186.89 96.5402 186.189 98.0448 184.706L97.3429 183.994ZM102.047 186H101.547V186.5H102.047V186ZM102.047 165V164.5H101.547V165H102.047ZM105.947 165L106.364 164.724L106.216 164.5H105.947V165ZM115.337 179.19L114.92 179.466L115.837 180.852V179.19H115.337ZM115.337 165V164.5H114.837V165H115.337ZM119.267 165H119.767V164.5H119.267V165ZM119.267 186V186.5H119.767V186H119.267ZM115.547 186L115.129 186.274L115.277 186.5H115.547V186ZM105.947 171.33L106.365 171.056L105.447 169.653V171.33H105.947ZM105.947 186V186.5H106.447V186H105.947ZM102.547 186V165H101.547V186H102.547ZM102.047 165.5H105.947V164.5H102.047V165.5ZM105.53 165.276L114.92 179.466L115.754 178.914L106.364 164.724L105.53 165.276ZM115.837 179.19V165H114.837V179.19H115.837ZM115.337 165.5H119.267V164.5H115.337V165.5ZM118.767 165V186H119.767V165H118.767ZM119.267 185.5H115.547V186.5H119.267V185.5ZM115.965 185.726L106.365 171.056L105.529 171.604L115.129 186.274L115.965 185.726ZM105.447 171.33V186H106.447V171.33H105.447ZM105.947 185.5H102.047V186.5H105.947V185.5ZM125.418 185.16L125.156 185.586L125.158 185.587L125.418 185.16ZM121.968 181.35L121.52 181.571L121.523 181.578L121.968 181.35ZM121.968 169.65L121.522 169.424L121.521 169.426L121.968 169.65ZM125.418 165.81L125.68 166.236L125.682 166.235L125.418 165.81ZM134.898 165.3L134.699 165.759L134.705 165.761L134.898 165.3ZM138.198 167.37L138.588 167.683L138.876 167.325L138.543 167.008L138.198 167.37ZM135.738 170.43L135.362 170.759L135.754 171.208L136.128 170.743L135.738 170.43ZM133.488 168.87L133.284 169.327L133.292 169.33L133.488 168.87ZM127.428 169.17L127.719 169.577L127.72 169.576L127.428 169.17ZM125.478 171.69L125.018 171.494L125.015 171.501L125.478 171.69ZM125.478 179.28L125.015 179.469L125.018 179.476L125.478 179.28ZM127.428 181.83L127.131 182.232L127.142 182.24L127.428 181.83ZM132.738 182.49L132.871 182.972L132.879 182.97L132.886 182.968L132.738 182.49ZM134.208 181.83L134.481 182.249L134.708 182.101V181.83H134.208ZM134.208 177.78H134.708V177.28H134.208V177.78ZM131.028 177.78H130.528V178.28H131.028V177.78ZM131.028 174.18V173.68H130.528V174.18H131.028ZM138.168 174.18H138.668V173.68H138.168V174.18ZM138.168 184.41L138.445 184.826L138.668 184.678V184.41H138.168ZM134.598 185.97L134.47 185.487L134.468 185.487L134.598 185.97ZM130.488 186.01C128.671 186.01 127.072 185.581 125.678 184.733L125.158 185.587C126.724 186.539 128.506 187.01 130.488 187.01V186.01ZM125.68 184.734C124.304 183.886 123.215 182.687 122.413 181.122L121.523 181.578C122.401 183.293 123.612 184.634 125.156 185.586L125.68 184.734ZM122.416 181.129C121.637 179.55 121.238 177.679 121.238 175.5H120.238C120.238 177.801 120.659 179.83 121.52 181.571L122.416 181.129ZM121.238 175.5C121.238 173.3 121.637 171.43 122.415 169.874L121.521 169.426C120.659 171.15 120.238 173.18 120.238 175.5H121.238ZM122.414 169.876C123.216 168.291 124.306 167.083 125.68 166.236L125.156 165.384C123.611 166.337 122.4 167.689 121.522 169.424L122.414 169.876ZM125.682 166.235C127.076 165.368 128.673 164.93 130.488 164.93V163.93C128.503 163.93 126.72 164.412 125.154 165.385L125.682 166.235ZM130.488 164.93C132.026 164.93 133.428 165.208 134.699 165.759L135.097 164.841C133.688 164.231 132.15 163.93 130.488 163.93V164.93ZM134.705 165.761C136.001 166.303 137.046 166.962 137.853 167.732L138.543 167.008C137.63 166.138 136.475 165.417 135.091 164.839L134.705 165.761ZM137.808 167.057L135.348 170.117L136.128 170.743L138.588 167.683L137.808 167.057ZM136.114 170.101C135.496 169.394 134.679 168.834 133.684 168.41L133.292 169.33C134.177 169.706 134.86 170.186 135.362 170.759L136.114 170.101ZM133.692 168.413C132.686 167.964 131.616 167.74 130.488 167.74V168.74C131.48 168.74 132.41 168.936 133.284 169.327L133.692 168.413ZM130.488 167.74C129.216 167.74 128.09 168.076 127.136 168.764L127.72 169.576C128.486 169.024 129.401 168.74 130.488 168.74V167.74ZM127.137 168.763C126.213 169.424 125.509 170.341 125.018 171.494L125.938 171.886C126.367 170.879 126.963 170.116 127.719 169.577L127.137 168.763ZM125.015 171.501C124.545 172.654 124.318 173.991 124.318 175.5H125.318C125.318 174.089 125.531 172.886 125.941 171.879L125.015 171.501ZM124.318 175.5C124.318 176.99 124.546 178.316 125.015 179.469L125.941 179.091C125.53 178.084 125.318 176.89 125.318 175.5H124.318ZM125.018 179.476C125.509 180.628 126.211 181.553 127.131 182.232L127.725 181.428C126.965 180.867 126.368 180.092 125.938 179.084L125.018 179.476ZM127.142 182.24C128.096 182.906 129.219 183.23 130.488 183.23V182.23C129.397 182.23 128.48 181.954 127.714 181.42L127.142 182.24ZM130.488 183.23C131.432 183.23 132.231 183.148 132.871 182.972L132.605 182.008C132.085 182.152 131.384 182.23 130.488 182.23V183.23ZM132.886 182.968C133.499 182.777 134.033 182.54 134.481 182.249L133.936 181.411C133.583 181.64 133.137 181.843 132.59 182.012L132.886 182.968ZM134.708 181.83V177.78H133.708V181.83H134.708ZM134.208 177.28H131.028V178.28H134.208V177.28ZM131.528 177.78V174.18H130.528V177.78H131.528ZM131.028 174.68H138.168V173.68H131.028V174.68ZM137.668 174.18V184.41H138.668V174.18H137.668ZM137.891 183.994C136.923 184.639 135.785 185.139 134.47 185.487L134.726 186.453C136.131 186.081 137.373 185.541 138.445 184.826L137.891 183.994ZM134.468 185.487C133.171 185.836 131.845 186.01 130.488 186.01V187.01C131.931 187.01 133.345 186.824 134.728 186.453L134.468 185.487ZM138.709 186L138.287 185.733L137.802 186.5H138.709V186ZM145.609 175.08L146.032 175.347L146.202 175.078L146.03 174.811L145.609 175.08ZM139.159 165V164.5H138.246L138.738 165.269L139.159 165ZM143.779 165L144.208 164.742L144.062 164.5H143.779V165ZM147.709 171.54L147.281 171.798L147.711 172.513L148.139 171.796L147.709 171.54ZM151.609 165V164.5H151.325L151.18 164.744L151.609 165ZM156.229 165L156.651 165.269L157.14 164.5H156.229V165ZM149.809 175.08L149.387 174.811L149.217 175.079L149.387 175.347L149.809 175.08ZM156.709 186V186.5H157.617L157.132 185.733L156.709 186ZM152.059 186L151.628 186.254L151.774 186.5H152.059V186ZM147.709 178.62L148.14 178.366L147.711 177.638L147.279 178.365L147.709 178.62ZM143.329 186V186.5H143.614L143.759 186.255L143.329 186ZM139.132 186.267L146.032 175.347L145.187 174.813L138.287 185.733L139.132 186.267ZM146.03 174.811L139.58 164.731L138.738 165.269L145.188 175.349L146.03 174.811ZM139.159 165.5H143.779V164.5H139.159V165.5ZM143.351 165.258L147.281 171.798L148.138 171.282L144.208 164.742L143.351 165.258ZM148.139 171.796L152.039 165.256L151.18 164.744L147.28 171.284L148.139 171.796ZM151.609 165.5H156.229V164.5H151.609V165.5ZM155.807 164.731L149.387 174.811L150.231 175.349L156.651 165.269L155.807 164.731ZM149.387 175.347L156.287 186.267L157.132 185.733L150.232 174.813L149.387 175.347ZM156.709 185.5H152.059V186.5H156.709V185.5ZM152.49 185.746L148.14 178.366L147.278 178.874L151.628 186.254L152.49 185.746ZM147.279 178.365L142.899 185.745L143.759 186.255L148.139 178.875L147.279 178.365ZM143.329 185.5H138.709V186.5H143.329V185.5ZM157.694 186H157.194V186.5H157.694V186ZM157.694 165V164.5H157.194V165H157.694ZM161.594 165H162.094V164.5H161.594V165ZM161.594 186V186.5H162.094V186H161.594ZM158.194 186V165H157.194V186H158.194ZM157.694 165.5H161.594V164.5H157.694V165.5ZM161.094 165V186H162.094V165H161.094ZM161.594 185.5H157.694V186.5H161.594V185.5ZM164.104 186H163.604V186.5H164.104V186ZM164.104 165V164.5H163.604V165H164.104ZM168.004 165L168.437 164.751L168.293 164.5H168.004V165ZM173.704 174.9L173.27 175.149L173.706 175.906L174.138 175.148L173.704 174.9ZM179.344 165V164.5H179.053L178.909 164.752L179.344 165ZM183.274 165H183.774V164.5H183.274V165ZM183.274 186V186.5H183.774V186H183.274ZM179.314 186H178.814V186.5H179.314V186ZM179.314 171.75H179.814L178.876 171.509L179.314 171.75ZM174.814 179.91V180.41H175.109L175.252 180.151L174.814 179.91ZM172.534 179.91L172.096 180.151L172.238 180.41H172.534V179.91ZM168.034 171.75L168.472 171.509L167.534 171.75H168.034ZM168.034 186V186.5H168.534V186H168.034ZM164.604 186V165H163.604V186H164.604ZM164.104 165.5H168.004V164.5H164.104V165.5ZM167.57 165.249L173.27 175.149L174.137 174.651L168.437 164.751L167.57 165.249ZM174.138 175.148L179.778 165.248L178.909 164.752L173.269 174.652L174.138 175.148ZM179.344 165.5H183.274V164.5H179.344V165.5ZM182.774 165V186H183.774V165H182.774ZM183.274 185.5H179.314V186.5H183.274V185.5ZM179.814 186V171.75H178.814V186H179.814ZM178.876 171.509L174.376 179.669L175.252 180.151L179.752 171.991L178.876 171.509ZM174.814 179.41H172.534V180.41H174.814V179.41ZM172.972 179.669L168.472 171.509L167.596 171.991L172.096 180.151L172.972 179.669ZM167.534 171.75V186H168.534V171.75H167.534ZM168.034 185.5H164.104V186.5H168.034V185.5Z" fill="#3B2309" mask="url(#path-11-outside-1_1_17)"/>
</svg>
